{
    "patcher": {
        "fileversion": 1,
        "appversion": {
            "major": 9,
            "minor": 1,
            "revision": 0,
            "architecture": "x64",
            "modernui": 1
        },
        "classnamespace": "box",
        "rect": [ 643.0, 183.0, 764.0, 780.0 ],
        "boxes": [
            {
                "box": {
                    "id": "obj-72",
                    "maxclass": "newobj",
                    "numinlets": 1,
                    "numoutlets": 0,
                    "patching_rect": [ 582.0, 502.0, 138.0, 22.0 ],
                    "presentation": 1,
                    "presentation_rect": [ 582.0, 504.0, 138.0, 22.0 ],
                    "text": "udpsend 127.0.0.1 7007"
                }
            },
            {
                "box": {
                    "id": "obj-73",
                    "maxclass": "newobj",
                    "numinlets": 1,
                    "numoutlets": 1,
                    "outlettype": [ "" ],
                    "patching_rect": [ 582.0, 471.0, 123.0, 22.0 ],
                    "text": "prepend /levelsmooth"
                }
            },
            {
                "box": {
                    "id": "obj-70",
                    "maxclass": "newobj",
                    "numinlets": 1,
                    "numoutlets": 0,
                    "patching_rect": [ 436.0, 502.0, 138.0, 22.0 ],
                    "presentation": 1,
                    "presentation_rect": [ 434.0, 499.0, 138.0, 22.0 ],
                    "text": "udpsend 127.0.0.1 7006"
                }
            },
            {
                "box": {
                    "id": "obj-71",
                    "maxclass": "newobj",
                    "numinlets": 1,
                    "numoutlets": 1,
                    "outlettype": [ "" ],
                    "patching_rect": [ 436.0, 471.0, 84.0, 22.0 ],
                    "text": "prepend /level"
                }
            },
            {
                "box": {
                    "id": "obj-69",
                    "maxclass": "newobj",
                    "numinlets": 0,
                    "numoutlets": 2,
                    "outlettype": [ "", "float" ],
                    "patcher": {
                        "fileversion": 1,
                        "appversion": {
                            "major": 9,
                            "minor": 1,
                            "revision": 0,
                            "architecture": "x64",
                            "modernui": 1
                        },
                        "classnamespace": "box",
                        "rect": [ 552.0, 131.0, 1000.0, 780.0 ],
                        "boxes": [
                            {
                                "box": {
                                    "id": "obj-282",
                                    "maxclass": "newobj",
                                    "numinlets": 1,
                                    "numoutlets": 1,
                                    "outlettype": [ "signal" ],
                                    "patching_rect": [ 160.0, 41.0, 91.0, 22.0 ],
                                    "text": "receive~ mout2"
                                }
                            },
                            {
                                "box": {
                                    "id": "obj-281",
                                    "maxclass": "newobj",
                                    "numinlets": 1,
                                    "numoutlets": 1,
                                    "outlettype": [ "signal" ],
                                    "patching_rect": [ 50.0, 41.0, 91.0, 22.0 ],
                                    "text": "receive~ mout1"
                                }
                            },
                            {
                                "box": {
                                    "comment": "",
                                    "id": "obj-2",
                                    "index": 2,
                                    "maxclass": "outlet",
                                    "numinlets": 1,
                                    "numoutlets": 0,
                                    "patching_rect": [ 155.0, 207.0, 30.0, 30.0 ]
                                }
                            },
                            {
                                "box": {
                                    "comment": "",
                                    "id": "obj-1",
                                    "index": 1,
                                    "maxclass": "outlet",
                                    "numinlets": 1,
                                    "numoutlets": 0,
                                    "patching_rect": [ 50.0, 203.0, 30.0, 30.0 ]
                                }
                            },
                            {
                                "box": {
                                    "id": "obj-8",
                                    "maxclass": "newobj",
                                    "numinlets": 2,
                                    "numoutlets": 1,
                                    "outlettype": [ "float" ],
                                    "patching_rect": [ 50.0, 120.0, 29.5, 22.0 ],
                                    "text": "* 3."
                                }
                            },
                            {
                                "box": {
                                    "id": "obj-7",
                                    "maxclass": "multislider",
                                    "numinlets": 1,
                                    "numoutlets": 2,
                                    "outlettype": [ "", "" ],
                                    "parameter_enable": 0,
                                    "patching_rect": [ 287.0, 297.0, 230.0, 143.0 ],
                                    "setminmax": [ 0.0, 1.0 ],
                                    "setstyle": 5
                                }
                            },
                            {
                                "box": {
                                    "id": "obj-11",
                                    "maxclass": "multislider",
                                    "numinlets": 1,
                                    "numoutlets": 2,
                                    "outlettype": [ "", "" ],
                                    "parameter_enable": 0,
                                    "patching_rect": [ 49.75, 297.0, 230.0, 143.0 ],
                                    "setminmax": [ 0.0, 1.0 ],
                                    "setstyle": 5
                                }
                            },
                            {
                                "box": {
                                    "id": "obj-5",
                                    "maxclass": "newobj",
                                    "numinlets": 3,
                                    "numoutlets": 1,
                                    "outlettype": [ "float" ],
                                    "patching_rect": [ 155.0, 158.0, 53.0, 22.0 ],
                                    "text": "slide 3 3"
                                }
                            },
                            {
                                "box": {
                                    "id": "obj-57",
                                    "maxclass": "newobj",
                                    "numinlets": 3,
                                    "numoutlets": 1,
                                    "outlettype": [ "" ],
                                    "patching_rect": [ 50.0, 158.0, 53.0, 22.0 ],
                                    "text": "clip 0. 1."
                                }
                            },
                            {
                                "box": {
                                    "id": "obj-36",
                                    "maxclass": "newobj",
                                    "numinlets": 2,
                                    "numoutlets": 1,
                                    "outlettype": [ "float" ],
                                    "patching_rect": [ 50.0, 86.0, 88.0, 22.0 ],
                                    "text": "peakamp~ 100"
                                }
                            }
                        ],
                        "lines": [
                            {
                                "patchline": {
                                    "destination": [ "obj-36", 0 ],
                                    "source": [ "obj-281", 0 ]
                                }
                            },
                            {
                                "patchline": {
                                    "destination": [ "obj-36", 0 ],
                                    "source": [ "obj-282", 0 ]
                                }
                            },
                            {
                                "patchline": {
                                    "destination": [ "obj-8", 0 ],
                                    "midpoints": [ 59.5, 111.0, 59.5, 111.0 ],
                                    "source": [ "obj-36", 0 ]
                                }
                            },
                            {
                                "patchline": {
                                    "destination": [ "obj-2", 0 ],
                                    "order": 1,
                                    "source": [ "obj-5", 0 ]
                                }
                            },
                            {
                                "patchline": {
                                    "destination": [ "obj-7", 0 ],
                                    "midpoints": [ 164.5, 183.0, 296.5, 183.0 ],
                                    "order": 0,
                                    "source": [ "obj-5", 0 ]
                                }
                            },
                            {
                                "patchline": {
                                    "destination": [ "obj-1", 0 ],
                                    "order": 1,
                                    "source": [ "obj-57", 0 ]
                                }
                            },
                            {
                                "patchline": {
                                    "destination": [ "obj-11", 0 ],
                                    "midpoints": [ 59.5, 183.0, 36.0, 183.0, 36.0, 282.0, 59.25, 282.0 ],
                                    "order": 2,
                                    "source": [ "obj-57", 0 ]
                                }
                            },
                            {
                                "patchline": {
                                    "destination": [ "obj-5", 0 ],
                                    "midpoints": [ 59.5, 183.0, 141.0, 183.0, 141.0, 153.0, 164.5, 153.0 ],
                                    "order": 0,
                                    "source": [ "obj-57", 0 ]
                                }
                            },
                            {
                                "patchline": {
                                    "destination": [ "obj-57", 0 ],
                                    "midpoints": [ 59.5, 144.0, 59.5, 144.0 ],
                                    "source": [ "obj-8", 0 ]
                                }
                            }
                        ]
                    },
                    "patching_rect": [ 436.0, 320.0, 89.0, 22.0 ],
                    "text": "p ampfollowing"
                }
            },
            {
                "box": {
                    "id": "obj-59",
                    "maxclass": "newobj",
                    "numinlets": 1,
                    "numoutlets": 0,
                    "patching_rect": [ 436.0, 250.0, 138.0, 22.0 ],
                    "presentation": 1,
                    "presentation_rect": [ 439.0, 251.0, 138.0, 22.0 ],
                    "text": "udpsend 127.0.0.1 7003"
                }
            },
            {
                "box": {
                    "id": "obj-60",
                    "maxclass": "newobj",
                    "numinlets": 1,
                    "numoutlets": 1,
                    "outlettype": [ "" ],
                    "patching_rect": [ 436.0, 219.0, 83.0, 22.0 ],
                    "text": "prepend /bpm"
                }
            },
            {
                "box": {
                    "id": "obj-45",
                    "maxclass": "message",
                    "numinlets": 2,
                    "numoutlets": 1,
                    "outlettype": [ "" ],
                    "patching_rect": [ 267.0, 437.0, 29.5, 22.0 ],
                    "text": "0"
                }
            },
            {
                "box": {
                    "id": "obj-46",
                    "maxclass": "newobj",
                    "numinlets": 1,
                    "numoutlets": 2,
                    "outlettype": [ "bang", "bang" ],
                    "patching_rect": [ 266.0, 359.0, 32.0, 22.0 ],
                    "text": "t b b"
                }
            },
            {
                "box": {
                    "id": "obj-47",
                    "maxclass": "newobj",
                    "numinlets": 2,
                    "numoutlets": 1,
                    "outlettype": [ "bang" ],
                    "patching_rect": [ 266.0, 407.0, 54.0, 22.0 ],
                    "text": "delay 50"
                }
            },
            {
                "box": {
                    "id": "obj-48",
                    "maxclass": "message",
                    "numinlets": 2,
                    "numoutlets": 1,
                    "outlettype": [ "" ],
                    "patching_rect": [ 335.0, 437.0, 29.5, 22.0 ],
                    "text": "1"
                }
            },
            {
                "box": {
                    "id": "obj-49",
                    "maxclass": "newobj",
                    "numinlets": 1,
                    "numoutlets": 0,
                    "patching_rect": [ 267.0, 502.0, 138.0, 22.0 ],
                    "presentation": 1,
                    "presentation_rect": [ 267.0, 502.0, 138.0, 22.0 ],
                    "text": "udpsend 127.0.0.1 7005"
                }
            },
            {
                "box": {
                    "id": "obj-50",
                    "maxclass": "newobj",
                    "numinlets": 1,
                    "numoutlets": 1,
                    "outlettype": [ "" ],
                    "patching_rect": [ 267.0, 471.0, 89.0, 22.0 ],
                    "text": "prepend /onset"
                }
            },
            {
                "box": {
                    "id": "obj-51",
                    "maxclass": "message",
                    "numinlets": 2,
                    "numoutlets": 1,
                    "outlettype": [ "" ],
                    "patching_rect": [ 98.0, 438.0, 29.5, 22.0 ],
                    "text": "0"
                }
            },
            {
                "box": {
                    "id": "obj-52",
                    "maxclass": "newobj",
                    "numinlets": 1,
                    "numoutlets": 2,
                    "outlettype": [ "bang", "bang" ],
                    "patching_rect": [ 97.0, 360.0, 32.0, 22.0 ],
                    "text": "t b b"
                }
            },
            {
                "box": {
                    "id": "obj-53",
                    "maxclass": "newobj",
                    "numinlets": 2,
                    "numoutlets": 1,
                    "outlettype": [ "bang" ],
                    "patching_rect": [ 97.0, 408.0, 54.0, 22.0 ],
                    "text": "delay 50"
                }
            },
            {
                "box": {
                    "id": "obj-54",
                    "maxclass": "message",
                    "numinlets": 2,
                    "numoutlets": 1,
                    "outlettype": [ "" ],
                    "patching_rect": [ 166.0, 438.0, 29.5, 22.0 ],
                    "text": "1"
                }
            },
            {
                "box": {
                    "id": "obj-55",
                    "maxclass": "newobj",
                    "numinlets": 1,
                    "numoutlets": 0,
                    "patching_rect": [ 98.0, 503.0, 138.0, 22.0 ],
                    "presentation": 1,
                    "presentation_rect": [ 98.0, 503.0, 138.0, 22.0 ],
                    "text": "udpsend 127.0.0.1 7004"
                }
            },
            {
                "box": {
                    "id": "obj-56",
                    "maxclass": "newobj",
                    "numinlets": 1,
                    "numoutlets": 1,
                    "outlettype": [ "" ],
                    "patching_rect": [ 98.0, 472.0, 104.0, 22.0 ],
                    "text": "prepend /impNote"
                }
            },
            {
                "box": {
                    "id": "obj-44",
                    "maxclass": "newobj",
                    "numinlets": 0,
                    "numoutlets": 1,
                    "outlettype": [ "" ],
                    "patching_rect": [ 432.0, 74.0, 39.0, 22.0 ],
                    "text": "r bpm"
                }
            },
            {
                "box": {
                    "id": "obj-57",
                    "maxclass": "newobj",
                    "numinlets": 0,
                    "numoutlets": 1,
                    "outlettype": [ "" ],
                    "patching_rect": [ 98.0, 320.0, 120.0, 22.0 ],
                    "text": "r behaviors_rhythmic"
                }
            },
            {
                "box": {
                    "id": "obj-16",
                    "maxclass": "newobj",
                    "numinlets": 0,
                    "numoutlets": 1,
                    "outlettype": [ "" ],
                    "patching_rect": [ 266.0, 320.0, 117.0, 22.0 ],
                    "text": "r behaviors_reactive"
                }
            },
            {
                "box": {
                    "id": "obj-38",
                    "maxclass": "message",
                    "numinlets": 2,
                    "numoutlets": 1,
                    "outlettype": [ "" ],
                    "patching_rect": [ 267.0, 185.0, 29.5, 22.0 ],
                    "text": "0"
                }
            },
            {
                "box": {
                    "id": "obj-39",
                    "maxclass": "newobj",
                    "numinlets": 1,
                    "numoutlets": 2,
                    "outlettype": [ "bang", "bang" ],
                    "patching_rect": [ 266.0, 107.0, 32.0, 22.0 ],
                    "text": "t b b"
                }
            },
            {
                "box": {
                    "id": "obj-40",
                    "maxclass": "newobj",
                    "numinlets": 2,
                    "numoutlets": 1,
                    "outlettype": [ "bang" ],
                    "patching_rect": [ 266.0, 155.0, 54.0, 22.0 ],
                    "text": "delay 50"
                }
            },
            {
                "box": {
                    "id": "obj-41",
                    "maxclass": "message",
                    "numinlets": 2,
                    "numoutlets": 1,
                    "outlettype": [ "" ],
                    "patching_rect": [ 335.0, 185.0, 29.5, 22.0 ],
                    "text": "1"
                }
            },
            {
                "box": {
                    "id": "obj-42",
                    "maxclass": "newobj",
                    "numinlets": 1,
                    "numoutlets": 0,
                    "patching_rect": [ 267.0, 250.0, 138.0, 22.0 ],
                    "presentation": 1,
                    "presentation_rect": [ 313.0, 251.0, 138.0, 22.0 ],
                    "text": "udpsend 127.0.0.1 7002"
                }
            },
            {
                "box": {
                    "id": "obj-43",
                    "maxclass": "newobj",
                    "numinlets": 1,
                    "numoutlets": 1,
                    "outlettype": [ "" ],
                    "patching_rect": [ 267.0, 219.0, 89.0, 22.0 ],
                    "text": "prepend /onset"
                }
            },
            {
                "box": {
                    "id": "obj-58",
                    "maxclass": "newobj",
                    "numinlets": 0,
                    "numoutlets": 1,
                    "outlettype": [ "" ],
                    "patching_rect": [ 266.0, 74.0, 45.0, 22.0 ],
                    "text": "r onset"
                }
            },
            {
                "box": {
                    "id": "obj-35",
                    "maxclass": "message",
                    "numinlets": 2,
                    "numoutlets": 1,
                    "outlettype": [ "" ],
                    "patching_rect": [ 98.25, 186.0, 29.5, 22.0 ],
                    "text": "0"
                }
            },
            {
                "box": {
                    "id": "obj-34",
                    "maxclass": "newobj",
                    "numinlets": 1,
                    "numoutlets": 2,
                    "outlettype": [ "bang", "bang" ],
                    "patching_rect": [ 97.0, 108.0, 32.0, 22.0 ],
                    "text": "t b b"
                }
            },
            {
                "box": {
                    "id": "obj-33",
                    "maxclass": "newobj",
                    "numinlets": 2,
                    "numoutlets": 1,
                    "outlettype": [ "bang" ],
                    "patching_rect": [ 97.0, 156.0, 54.0, 22.0 ],
                    "text": "delay 50"
                }
            },
            {
                "box": {
                    "id": "obj-11",
                    "maxclass": "message",
                    "numinlets": 2,
                    "numoutlets": 1,
                    "outlettype": [ "" ],
                    "patching_rect": [ 166.5, 186.0, 29.5, 22.0 ],
                    "text": "1"
                }
            },
            {
                "box": {
                    "id": "obj-20",
                    "maxclass": "newobj",
                    "numinlets": 0,
                    "numoutlets": 1,
                    "outlettype": [ "" ],
                    "patching_rect": [ 97.0, 74.0, 99.0, 22.0 ],
                    "text": "r corpusplayback"
                }
            },
            {
                "box": {
                    "id": "obj-23",
                    "maxclass": "newobj",
                    "numinlets": 1,
                    "numoutlets": 0,
                    "patching_rect": [ 98.0, 251.0, 138.0, 22.0 ],
                    "presentation": 1,
                    "presentation_rect": [ 1141.0, 336.0, 138.0, 22.0 ],
                    "text": "udpsend 127.0.0.1 7001"
                }
            },
            {
                "box": {
                    "id": "obj-28",
                    "maxclass": "newobj",
                    "numinlets": 1,
                    "numoutlets": 1,
                    "outlettype": [ "" ],
                    "patching_rect": [ 98.0, 220.0, 104.0, 22.0 ],
                    "text": "prepend /impNote"
                }
            }
        ],
        "lines": [
            {
                "patchline": {
                    "destination": [ "obj-28", 0 ],
                    "source": [ "obj-11", 0 ]
                }
            },
            {
                "patchline": {
                    "destination": [ "obj-46", 0 ],
                    "source": [ "obj-16", 0 ]
                }
            },
            {
                "patchline": {
                    "destination": [ "obj-34", 0 ],
                    "source": [ "obj-20", 0 ]
                }
            },
            {
                "patchline": {
                    "destination": [ "obj-23", 0 ],
                    "midpoints": [ 107.5, 244.0, 107.5, 244.0 ],
                    "source": [ "obj-28", 0 ]
                }
            },
            {
                "patchline": {
                    "destination": [ "obj-35", 0 ],
                    "source": [ "obj-33", 0 ]
                }
            },
            {
                "patchline": {
                    "destination": [ "obj-11", 0 ],
                    "source": [ "obj-34", 1 ]
                }
            },
            {
                "patchline": {
                    "destination": [ "obj-33", 0 ],
                    "source": [ "obj-34", 0 ]
                }
            },
            {
                "patchline": {
                    "destination": [ "obj-28", 0 ],
                    "source": [ "obj-35", 0 ]
                }
            },
            {
                "patchline": {
                    "destination": [ "obj-43", 0 ],
                    "source": [ "obj-38", 0 ]
                }
            },
            {
                "patchline": {
                    "destination": [ "obj-40", 0 ],
                    "source": [ "obj-39", 0 ]
                }
            },
            {
                "patchline": {
                    "destination": [ "obj-41", 0 ],
                    "source": [ "obj-39", 1 ]
                }
            },
            {
                "patchline": {
                    "destination": [ "obj-38", 0 ],
                    "source": [ "obj-40", 0 ]
                }
            },
            {
                "patchline": {
                    "destination": [ "obj-43", 0 ],
                    "source": [ "obj-41", 0 ]
                }
            },
            {
                "patchline": {
                    "destination": [ "obj-42", 0 ],
                    "midpoints": [ 276.5, 243.0, 276.5, 243.0 ],
                    "source": [ "obj-43", 0 ]
                }
            },
            {
                "patchline": {
                    "destination": [ "obj-60", 0 ],
                    "source": [ "obj-44", 0 ]
                }
            },
            {
                "patchline": {
                    "destination": [ "obj-50", 0 ],
                    "source": [ "obj-45", 0 ]
                }
            },
            {
                "patchline": {
                    "destination": [ "obj-47", 0 ],
                    "source": [ "obj-46", 0 ]
                }
            },
            {
                "patchline": {
                    "destination": [ "obj-48", 0 ],
                    "source": [ "obj-46", 1 ]
                }
            },
            {
                "patchline": {
                    "destination": [ "obj-45", 0 ],
                    "source": [ "obj-47", 0 ]
                }
            },
            {
                "patchline": {
                    "destination": [ "obj-50", 0 ],
                    "source": [ "obj-48", 0 ]
                }
            },
            {
                "patchline": {
                    "destination": [ "obj-49", 0 ],
                    "midpoints": [ 276.5, 495.0, 276.5, 495.0 ],
                    "source": [ "obj-50", 0 ]
                }
            },
            {
                "patchline": {
                    "destination": [ "obj-56", 0 ],
                    "source": [ "obj-51", 0 ]
                }
            },
            {
                "patchline": {
                    "destination": [ "obj-53", 0 ],
                    "source": [ "obj-52", 0 ]
                }
            },
            {
                "patchline": {
                    "destination": [ "obj-54", 0 ],
                    "source": [ "obj-52", 1 ]
                }
            },
            {
                "patchline": {
                    "destination": [ "obj-51", 0 ],
                    "source": [ "obj-53", 0 ]
                }
            },
            {
                "patchline": {
                    "destination": [ "obj-56", 0 ],
                    "source": [ "obj-54", 0 ]
                }
            },
            {
                "patchline": {
                    "destination": [ "obj-55", 0 ],
                    "midpoints": [ 107.5, 496.0, 107.5, 496.0 ],
                    "source": [ "obj-56", 0 ]
                }
            },
            {
                "patchline": {
                    "destination": [ "obj-52", 0 ],
                    "source": [ "obj-57", 0 ]
                }
            },
            {
                "patchline": {
                    "destination": [ "obj-39", 0 ],
                    "source": [ "obj-58", 0 ]
                }
            },
            {
                "patchline": {
                    "destination": [ "obj-59", 0 ],
                    "midpoints": [ 445.5, 243.0, 445.5, 243.0 ],
                    "source": [ "obj-60", 0 ]
                }
            },
            {
                "patchline": {
                    "destination": [ "obj-71", 0 ],
                    "source": [ "obj-69", 0 ]
                }
            },
            {
                "patchline": {
                    "destination": [ "obj-73", 0 ],
                    "source": [ "obj-69", 1 ]
                }
            },
            {
                "patchline": {
                    "destination": [ "obj-70", 0 ],
                    "midpoints": [ 445.5, 495.0, 445.5, 495.0 ],
                    "source": [ "obj-71", 0 ]
                }
            },
            {
                "patchline": {
                    "destination": [ "obj-72", 0 ],
                    "midpoints": [ 591.5, 495.0, 591.5, 495.0 ],
                    "source": [ "obj-73", 0 ]
                }
            }
        ],
        "autosave": 0
    }
}